<?xml version="1.0" encoding="iso-8859-1"?>
<!-- Uploaded to: SVG Repo, www.svgrepo.com, Generator: SVG Repo Mixer Tools -->
<svg height="800px" width="800px" version="1.1" id="Layer_1" xmlns="http://www.w3.org/2000/svg" xmlns:xlink="http://www.w3.org/1999/xlink" 
	 viewBox="0 0 512 512" xml:space="preserve">
<g>
	<circle style="fill:#14B0BF;" cx="256" cy="256" r="256"/>
	<path style="fill:#4388B7;" d="M508.667,296.883l-0.922-0.922c-0.906-0.952-202.696-202.762-203.658-203.658
		c-12.042-12.646-28.979-20.582-47.821-20.582c-36.516,0-66.115,29.604-66.115,66.115v60.339c0,9.6,2.094,18.703,5.775,26.936
		c-8.115-4.884-17.326-8.136-27.223-9.139c-2.222-0.225-4.48-0.343-6.758-0.343l0,0c-36.516,0-66.115,29.604-66.115,66.115l0,0
		v15.084c0,18.97,8.033,36.024,20.828,48.082c0.901,0.957,163.645,163.697,164.603,164.603l1.101,1.101
		c56.479-5.811,111.396-30.315,154.675-73.595C476.57,397.466,500.408,348.186,508.667,296.883z"/>
	<path style="fill:#EB9900;" d="M320.584,183.086c-6.835-29.235-33.004-51.031-64.323-51.031s-57.487,21.796-64.323,51.031h-1.797
		v15.084c0,36.516,29.604,66.115,66.12,66.115s66.115-29.604,66.115-66.115v-15.084L320.584,183.086L320.584,183.086z"/>
	<circle style="fill:#FFF466;" cx="256.256" cy="183.086" r="66.115"/>
	<path style="fill:#FDC00F;" d="M256.261,116.972v132.234c36.516,0,66.115-29.604,66.115-66.115
		C322.376,146.57,292.777,116.972,256.261,116.972z"/>
	<path style="fill:#EB9900;" d="M256.261,238.341c-30.464,0-55.25-24.786-55.25-55.255c0-30.464,24.786-55.25,55.25-55.25
		c30.474,0,55.26,24.786,55.26,55.25C311.516,213.555,286.73,238.341,256.261,238.341z M256.261,135.378
		c-26.301,0-47.708,21.402-47.708,47.708s21.407,47.713,47.708,47.713c26.312,0,47.713-21.407,47.713-47.713
		S282.568,135.378,256.261,135.378z"/>
	<path style="fill:#EB9900;" d="M265.405,195.702c0-1.239-0.502-2.284-1.5-3.139c-1.004-0.855-2.504-1.741-4.506-2.652v11.003
		C263.404,200.238,265.405,198.497,265.405,195.702z M278.707,195.036c0,4.685-1.695,8.448-5.084,11.29
		c-3.389,2.842-8.131,4.547-14.228,5.105v9.062h-6.057v-8.883c-7.188-0.148-13.496-1.413-18.913-3.799v-11.668
		c2.565,1.265,5.647,2.386,9.257,3.359s6.83,1.546,9.656,1.725v-13.701l-2.959-1.147c-5.832-2.299-9.964-4.797-12.396-7.491
		c-2.432-2.698-3.645-6.031-3.645-10.01c0-4.27,1.674-7.788,5.018-10.542s8.008-4.429,13.988-5.018v-6.764h6.057v6.584
		c6.748,0.297,12.846,1.649,18.299,4.065l-4.152,10.342c-4.598-1.884-9.308-3.036-14.141-3.446v13.036
		c5.745,2.212,9.836,4.127,12.262,5.745c2.427,1.618,4.214,3.405,5.345,5.345C278.139,190.177,278.707,192.445,278.707,195.036z
		 M247.639,168.873c0,1.295,0.451,2.365,1.347,3.205c0.896,0.84,2.35,1.7,4.352,2.586V164.28
		C249.539,164.838,247.639,166.369,247.639,168.873z"/>
	<path style="fill:#EB9900;" d="M226.253,281.743c-6.835-29.235-33.004-51.031-64.323-51.031s-57.487,21.796-64.323,51.031h-1.797
		v15.084c0,36.516,29.604,66.115,66.115,66.115c36.516,0,66.115-29.604,66.115-66.115v-15.084H226.253z"/>
	<circle style="fill:#FFF466;" cx="161.93" cy="281.754" r="66.115"/>
	<path style="fill:#FDC00F;" d="M161.93,215.624v132.234c36.516,0,66.115-29.604,66.115-66.12S198.446,215.624,161.93,215.624z"/>
	<path style="fill:#EB9900;" d="M161.93,336.993c-30.464,0-55.25-24.786-55.25-55.255c0-30.464,24.786-55.25,55.25-55.25
		c30.474,0,55.26,24.786,55.26,55.25C217.19,312.212,192.404,336.993,161.93,336.993z M161.93,234.035
		c-26.301,0-47.708,21.402-47.708,47.708c0,26.307,21.407,47.713,47.708,47.713c26.312,0,47.713-21.407,47.713-47.713
		C209.644,255.437,188.242,234.035,161.93,234.035z"/>
	<path style="fill:#EB9900;" d="M171.075,294.354c0-1.239-0.502-2.284-1.5-3.139c-1.004-0.855-2.504-1.741-4.506-2.652v11.003
		C169.073,298.895,171.075,297.155,171.075,294.354z M184.381,293.693c0,4.685-1.695,8.448-5.084,11.29
		c-3.389,2.842-8.131,4.547-14.228,5.105v9.062h-6.057v-8.883c-7.188-0.148-13.496-1.413-18.913-3.799v-11.668
		c2.565,1.265,5.647,2.386,9.257,3.359c3.61,0.973,6.83,1.546,9.656,1.725v-13.701l-2.959-1.147
		c-5.832-2.299-9.964-4.797-12.396-7.491c-2.432-2.693-3.645-6.031-3.645-10.01c0-4.27,1.674-7.788,5.018-10.542
		c3.343-2.755,8.008-4.429,13.988-5.018v-6.764h6.057v6.584c6.748,0.297,12.846,1.649,18.299,4.065l-4.152,10.342
		c-4.598-1.884-9.308-3.036-14.141-3.446v13.036c5.745,2.212,9.836,4.127,12.262,5.745c2.427,1.618,4.214,3.405,5.345,5.345
		C183.818,288.824,184.381,291.103,184.381,293.693z M153.308,267.53c0,1.295,0.451,2.365,1.347,3.205
		c0.901,0.84,2.35,1.7,4.352,2.586v-10.383C155.213,263.496,153.308,265.027,153.308,267.53z"/>
	<path style="fill:#EB9900;" d="M320.584,168.003c-6.835-29.235-33.004-51.031-64.323-51.031s-57.487,21.796-64.323,51.031h-1.797
		v15.084c0,36.516,29.604,66.12,66.12,66.12s66.115-29.604,66.115-66.12v-15.084L320.584,168.003L320.584,168.003z"/>
	<circle style="fill:#FFF466;" cx="256.256" cy="168.003" r="66.115"/>
	<path style="fill:#FDC00F;" d="M256.261,101.883v132.234c36.516,0,66.115-29.604,66.115-66.115S292.777,101.883,256.261,101.883z"
		/>
	<path style="fill:#EB9900;" d="M256.261,223.252c-30.464,0-55.25-24.786-55.25-55.255c0-30.464,24.786-55.25,55.25-55.25
		c30.474,0,55.26,24.786,55.26,55.25C311.516,198.467,286.73,223.252,256.261,223.252z M256.261,120.294
		c-26.301,0-47.708,21.402-47.708,47.708s21.407,47.713,47.708,47.713c26.312,0,47.713-21.407,47.713-47.713
		S282.568,120.294,256.261,120.294z"/>
	<path style="fill:#EB9900;" d="M265.405,180.613c0-1.239-0.502-2.284-1.5-3.139c-0.998-0.855-2.504-1.741-4.506-2.652v11.003
		C263.404,185.149,265.405,183.414,265.405,180.613z M278.707,179.953c0,4.685-1.695,8.448-5.084,11.29
		c-3.389,2.842-8.131,4.547-14.228,5.105v9.062h-6.057v-8.883c-7.188-0.148-13.496-1.413-18.913-3.799v-11.668
		c2.565,1.265,5.647,2.386,9.257,3.359s6.83,1.546,9.656,1.725v-13.701l-2.959-1.147c-5.832-2.299-9.964-4.797-12.396-7.491
		c-2.432-2.698-3.645-6.031-3.645-10.01c0-4.27,1.674-7.788,5.018-10.542s8.008-4.429,13.988-5.018v-6.764h6.057v6.584
		c6.748,0.297,12.846,1.649,18.299,4.065l-4.152,10.342c-4.598-1.884-9.308-3.036-14.141-3.446v13.036
		c5.745,2.212,9.836,4.127,12.262,5.745c2.427,1.618,4.214,3.405,5.345,5.345C278.139,175.089,278.707,177.357,278.707,179.953z
		 M247.639,153.789c0,1.295,0.451,2.365,1.347,3.205c0.901,0.84,2.35,1.7,4.352,2.586v-10.383
		C249.539,149.75,247.639,151.286,247.639,153.789z"/>
	<path style="fill:#EB9900;" d="M320.584,152.914c-6.835-29.235-33.004-51.031-64.323-51.031s-57.487,21.796-64.323,51.031h-1.797
		v15.084c0,36.516,29.604,66.115,66.12,66.115s66.115-29.604,66.115-66.115v-15.084
		C322.376,152.914,320.584,152.914,320.584,152.914z"/>
	<circle style="fill:#FFF466;" cx="256.256" cy="152.914" r="66.115"/>
	<path style="fill:#FDC00F;" d="M256.261,86.799v132.234c36.516,0,66.115-29.604,66.115-66.12S292.777,86.799,256.261,86.799z"/>
	<path style="fill:#EB9900;" d="M256.261,208.169c-30.464,0-55.25-24.786-55.25-55.255c0-30.464,24.786-55.25,55.25-55.25
		c30.474,0,55.26,24.786,55.26,55.25C311.516,183.383,286.73,208.169,256.261,208.169z M256.261,105.206
		c-26.301,0-47.708,21.402-47.708,47.708s21.407,47.713,47.708,47.713c26.312,0,47.713-21.407,47.713-47.713
		S282.568,105.206,256.261,105.206z"/>
	<path style="fill:#EB9900;" d="M265.405,165.53c0-1.239-0.502-2.284-1.5-3.139c-1.004-0.855-2.504-1.741-4.506-2.652v11.003
		C263.404,170.066,265.405,168.33,265.405,165.53z M278.707,164.864c0,4.685-1.695,8.448-5.084,11.29
		c-3.389,2.842-8.131,4.547-14.228,5.105v9.062h-6.057v-8.883c-7.188-0.148-13.496-1.413-18.913-3.799V165.97
		c2.565,1.265,5.647,2.386,9.257,3.359c3.61,0.973,6.83,1.546,9.656,1.725v-13.701l-2.959-1.147
		c-5.832-2.299-9.964-4.797-12.396-7.491c-2.432-2.698-3.645-6.031-3.645-10.01c0-4.27,1.674-7.788,5.018-10.542
		s8.008-4.429,13.988-5.018v-6.764h6.057v6.584c6.748,0.297,12.846,1.649,18.299,4.065l-4.152,10.342
		c-4.598-1.884-9.308-3.036-14.141-3.446v13.036c5.745,2.212,9.836,4.127,12.262,5.745c2.427,1.618,4.214,3.405,5.345,5.345
		C278.139,160.005,278.707,162.273,278.707,164.864z M247.639,138.701c0,1.295,0.451,2.365,1.347,3.205s2.35,1.7,4.352,2.586
		v-10.383C249.539,134.666,247.639,136.197,247.639,138.701z"/>
	<path style="fill:#EB9900;" d="M320.584,137.83c-6.835-29.235-33.004-51.031-64.323-51.031s-57.487,21.796-64.323,51.031h-1.797
		v15.084c0,36.516,29.604,66.115,66.12,66.115s66.115-29.604,66.115-66.115V137.83H320.584z"/>
	<circle style="fill:#FFF466;" cx="256.256" cy="137.83" r="66.115"/>
	<path style="fill:#FDC00F;" d="M256.261,71.716V203.95c36.516,0,66.115-29.604,66.115-66.115
		C322.376,101.315,292.777,71.716,256.261,71.716z"/>
	<path style="fill:#EB9900;" d="M256.261,193.085c-30.464,0-55.25-24.786-55.25-55.255c0-30.464,24.786-55.25,55.25-55.25
		c30.474,0,55.26,24.786,55.26,55.25C311.516,168.3,286.73,193.085,256.261,193.085z M256.261,90.122
		c-26.301,0-47.708,21.402-47.708,47.708s21.407,47.713,47.708,47.713c26.312,0,47.713-21.407,47.713-47.713
		S282.568,90.122,256.261,90.122z"/>
	<path style="fill:#EB9900;" d="M265.405,150.446c0-1.239-0.502-2.284-1.5-3.139c-1.004-0.855-2.504-1.741-4.506-2.652v11.003
		C263.404,154.982,265.405,153.242,265.405,150.446z M278.707,149.78c0,4.685-1.695,8.448-5.084,11.29
		c-3.389,2.842-8.131,4.547-14.228,5.105v9.062h-6.057v-8.883c-7.188-0.148-13.496-1.413-18.913-3.799v-11.668
		c2.565,1.265,5.647,2.386,9.257,3.359c3.61,0.973,6.83,1.546,9.656,1.725v-13.701l-2.959-1.147
		c-5.832-2.299-9.964-4.797-12.396-7.491c-2.432-2.698-3.645-6.031-3.645-10.01c0-4.27,1.674-7.788,5.018-10.542
		c3.343-2.755,8.008-4.429,13.988-5.018v-6.764h6.057v6.584c6.748,0.297,12.846,1.649,18.299,4.065l-4.152,10.342
		c-4.598-1.884-9.308-3.036-14.141-3.446v13.036c5.745,2.212,9.836,4.127,12.262,5.745c2.427,1.618,4.214,3.405,5.345,5.345
		C278.139,144.922,278.707,147.19,278.707,149.78z M247.639,123.617c0,1.295,0.451,2.365,1.347,3.205
		c0.896,0.84,2.35,1.7,4.352,2.586v-10.383C249.539,119.583,247.639,121.114,247.639,123.617z"/>
	<path style="fill:#C2D64A;" d="M358.62,375.035c0-17.106-24.417-43.95-34.678-54.477c10.527,10.26,37.371,34.678,54.477,34.678
		c21.637,0,39.178-17.541,39.178-39.178s-17.541-39.178-39.178-39.178c-17.101,0-43.94,24.412-54.472,34.673
		c10.26-10.532,34.673-37.371,34.673-54.472c0-21.637-17.541-39.178-39.178-39.178c-21.637,0-39.178,17.541-39.178,39.178
		c0,17.106,24.422,43.955,34.683,54.482c-10.527-10.255-37.371-34.683-54.477-34.683c-21.637,0-39.178,17.541-39.178,39.178
		c0,21.637,17.541,39.178,39.178,39.178c17.111,0,43.965-24.433,54.487-34.688c-10.255,10.522-34.688,37.376-34.688,54.487
		c0,21.637,17.541,39.178,39.178,39.178C341.084,414.213,358.62,396.672,358.62,375.035z"/>
	<path style="fill:#A4B830;" d="M212.434,425.61l92.698-92.708c-2.908,4.362-5.135,8.832-5.135,12.442
		c0,10.742,8.709,19.451,19.451,19.451s19.451-8.709,19.451-19.451c0-8.494-12.124-21.821-17.219-27.049
		c5.228,5.094,18.555,17.219,27.049,17.219c10.742,0,19.451-8.709,19.451-19.451s-8.709-19.451-19.451-19.451
		c-8.489,0-21.816,12.119-27.044,17.219c5.094-5.228,17.213-18.555,17.213-27.044c0-10.742-8.709-19.451-19.451-19.451
		s-19.451,8.709-19.451,19.451c0,8.479,12.093,21.786,17.198,27.023l-3.476-3.477l-0.123,0.123
		c-6.333-5.745-16.471-13.839-23.424-13.839c-10.742,0-19.451,8.709-19.451,19.451c0,10.235,7.931,18.529,17.961,19.302
		l-83.246,83.241L212.434,425.61z"/>
</g>
</svg>